<mxfile host="app.diagrams.net" modified="2024-01-18T16:41:52.721Z" agent="Mozilla/5.0 (Windows NT 10.0; Win64; x64; rv:122.0) Gecko/20100101 Firefox/122.0" etag="qG6nFNrXTI0ufRxQhWbx" version="22.1.21" type="device">
  <diagram name="Page-1" id="AlQgFYiAesxGKjzgry_K">
    <mxGraphModel dx="3010" dy="1164" grid="1" gridSize="10" guides="1" tooltips="1" connect="1" arrows="1" fold="1" page="1" pageScale="1" pageWidth="827" pageHeight="1169" math="0" shadow="0">
      <root>
        <mxCell id="0" />
        <mxCell id="1" parent="0" />
        <mxCell id="q1P370LqQ6XQnhw_d_2Z-51" value="" style="rounded=0;whiteSpace=wrap;html=1;movable=1;resizable=1;rotatable=1;deletable=1;editable=1;locked=0;connectable=1;labelBackgroundColor=none;" parent="1" vertex="1">
          <mxGeometry x="-340" y="180" width="1240" height="2380" as="geometry" />
        </mxCell>
        <mxCell id="VzBomBVX7HgXpCq8d6OW-28" value=":Site web" style="shape=umlLifeline;perimeter=lifelinePerimeter;whiteSpace=wrap;html=1;container=1;dropTarget=0;collapsible=0;recursiveResize=0;outlineConnect=0;portConstraint=eastwest;newEdgeStyle={&quot;edgeStyle&quot;:&quot;elbowEdgeStyle&quot;,&quot;elbow&quot;:&quot;vertical&quot;,&quot;curved&quot;:0,&quot;rounded&quot;:0};" parent="1" vertex="1">
          <mxGeometry x="363" y="200" width="97" height="2320" as="geometry" />
        </mxCell>
        <mxCell id="VzBomBVX7HgXpCq8d6OW-47" value="" style="html=1;points=[];perimeter=orthogonalPerimeter;outlineConnect=0;targetShapes=umlLifeline;portConstraint=eastwest;newEdgeStyle={&quot;edgeStyle&quot;:&quot;elbowEdgeStyle&quot;,&quot;elbow&quot;:&quot;vertical&quot;,&quot;curved&quot;:0,&quot;rounded&quot;:0};" parent="VzBomBVX7HgXpCq8d6OW-28" vertex="1">
          <mxGeometry x="45" y="160" width="10" height="80.2" as="geometry" />
        </mxCell>
        <mxCell id="UfP4zuB7MxWbcNb7HJ3a-6" value="" style="html=1;points=[];perimeter=orthogonalPerimeter;outlineConnect=0;targetShapes=umlLifeline;portConstraint=eastwest;newEdgeStyle={&quot;edgeStyle&quot;:&quot;elbowEdgeStyle&quot;,&quot;elbow&quot;:&quot;vertical&quot;,&quot;curved&quot;:0,&quot;rounded&quot;:0};" vertex="1" parent="VzBomBVX7HgXpCq8d6OW-28">
          <mxGeometry x="45" y="580" width="10" height="80.2" as="geometry" />
        </mxCell>
        <mxCell id="UfP4zuB7MxWbcNb7HJ3a-7" style="edgeStyle=elbowEdgeStyle;rounded=0;orthogonalLoop=1;jettySize=auto;html=1;elbow=vertical;curved=0;" edge="1" parent="VzBomBVX7HgXpCq8d6OW-28">
          <mxGeometry relative="1" as="geometry">
            <Array as="points">
              <mxPoint x="-106" y="580" />
            </Array>
            <mxPoint x="49.5" y="580" as="targetPoint" />
            <mxPoint x="-274" y="580" as="sourcePoint" />
          </mxGeometry>
        </mxCell>
        <mxCell id="UfP4zuB7MxWbcNb7HJ3a-8" value="Accède à la page permettant d&#39;ajouter une tache" style="edgeLabel;html=1;align=center;verticalAlign=middle;resizable=0;points=[];" vertex="1" connectable="0" parent="UfP4zuB7MxWbcNb7HJ3a-7">
          <mxGeometry x="0.2055" relative="1" as="geometry">
            <mxPoint x="-36" y="-10" as="offset" />
          </mxGeometry>
        </mxCell>
        <mxCell id="UfP4zuB7MxWbcNb7HJ3a-9" style="edgeStyle=elbowEdgeStyle;rounded=0;orthogonalLoop=1;jettySize=auto;html=1;elbow=vertical;curved=0;dashed=1;" edge="1" parent="VzBomBVX7HgXpCq8d6OW-28" source="UfP4zuB7MxWbcNb7HJ3a-6">
          <mxGeometry relative="1" as="geometry">
            <Array as="points">
              <mxPoint x="-203" y="660" />
            </Array>
            <mxPoint x="-269" y="660" as="targetPoint" />
          </mxGeometry>
        </mxCell>
        <mxCell id="UfP4zuB7MxWbcNb7HJ3a-10" value="Affiche la page permettant d&#39;ajouter une tache" style="edgeLabel;html=1;align=center;verticalAlign=middle;resizable=0;points=[];" vertex="1" connectable="0" parent="UfP4zuB7MxWbcNb7HJ3a-9">
          <mxGeometry x="0.1456" y="1" relative="1" as="geometry">
            <mxPoint x="20" y="-11" as="offset" />
          </mxGeometry>
        </mxCell>
        <mxCell id="UfP4zuB7MxWbcNb7HJ3a-11" value="" style="html=1;points=[];perimeter=orthogonalPerimeter;outlineConnect=0;targetShapes=umlLifeline;portConstraint=eastwest;newEdgeStyle={&quot;edgeStyle&quot;:&quot;elbowEdgeStyle&quot;,&quot;elbow&quot;:&quot;vertical&quot;,&quot;curved&quot;:0,&quot;rounded&quot;:0};" vertex="1" parent="VzBomBVX7HgXpCq8d6OW-28">
          <mxGeometry x="45" y="1320" width="10" height="80.2" as="geometry" />
        </mxCell>
        <mxCell id="UfP4zuB7MxWbcNb7HJ3a-12" style="edgeStyle=elbowEdgeStyle;rounded=0;orthogonalLoop=1;jettySize=auto;html=1;elbow=vertical;curved=0;" edge="1" parent="VzBomBVX7HgXpCq8d6OW-28">
          <mxGeometry relative="1" as="geometry">
            <Array as="points">
              <mxPoint x="-106" y="1320" />
            </Array>
            <mxPoint x="49.5" y="1320" as="targetPoint" />
            <mxPoint x="-274" y="1320" as="sourcePoint" />
          </mxGeometry>
        </mxCell>
        <mxCell id="UfP4zuB7MxWbcNb7HJ3a-13" value="Accède à la page permettant de modifier une tache" style="edgeLabel;html=1;align=center;verticalAlign=middle;resizable=0;points=[];" vertex="1" connectable="0" parent="UfP4zuB7MxWbcNb7HJ3a-12">
          <mxGeometry x="0.2055" relative="1" as="geometry">
            <mxPoint x="-36" y="-10" as="offset" />
          </mxGeometry>
        </mxCell>
        <mxCell id="UfP4zuB7MxWbcNb7HJ3a-14" style="edgeStyle=elbowEdgeStyle;rounded=0;orthogonalLoop=1;jettySize=auto;html=1;elbow=vertical;curved=0;dashed=1;" edge="1" parent="VzBomBVX7HgXpCq8d6OW-28" source="UfP4zuB7MxWbcNb7HJ3a-11">
          <mxGeometry relative="1" as="geometry">
            <Array as="points">
              <mxPoint x="-203" y="1400" />
            </Array>
            <mxPoint x="-269" y="1400" as="targetPoint" />
          </mxGeometry>
        </mxCell>
        <mxCell id="UfP4zuB7MxWbcNb7HJ3a-15" value="Affiche la page permettant de modifier une tache" style="edgeLabel;html=1;align=center;verticalAlign=middle;resizable=0;points=[];" vertex="1" connectable="0" parent="UfP4zuB7MxWbcNb7HJ3a-14">
          <mxGeometry x="0.1456" y="1" relative="1" as="geometry">
            <mxPoint x="20" y="-11" as="offset" />
          </mxGeometry>
        </mxCell>
        <mxCell id="UfP4zuB7MxWbcNb7HJ3a-16" value="frame" style="shape=umlFrame;whiteSpace=wrap;html=1;pointerEvents=0;" vertex="1" parent="VzBomBVX7HgXpCq8d6OW-28">
          <mxGeometry x="-683" y="1130" width="1200" height="640" as="geometry" />
        </mxCell>
        <mxCell id="UfP4zuB7MxWbcNb7HJ3a-17" value="Modifier une tache" style="text;html=1;align=center;verticalAlign=middle;resizable=0;points=[];autosize=1;strokeColor=none;fillColor=none;fontSize=24;" vertex="1" parent="VzBomBVX7HgXpCq8d6OW-28">
          <mxGeometry x="-668" y="1180" width="220" height="40" as="geometry" />
        </mxCell>
        <mxCell id="UfP4zuB7MxWbcNb7HJ3a-18" value="" style="html=1;points=[];perimeter=orthogonalPerimeter;outlineConnect=0;targetShapes=umlLifeline;portConstraint=eastwest;newEdgeStyle={&quot;edgeStyle&quot;:&quot;elbowEdgeStyle&quot;,&quot;elbow&quot;:&quot;vertical&quot;,&quot;curved&quot;:0,&quot;rounded&quot;:0};" vertex="1" parent="VzBomBVX7HgXpCq8d6OW-28">
          <mxGeometry x="45" y="1480" width="10" height="80.2" as="geometry" />
        </mxCell>
        <mxCell id="UfP4zuB7MxWbcNb7HJ3a-19" value="" style="html=1;points=[];perimeter=orthogonalPerimeter;outlineConnect=0;targetShapes=umlLifeline;portConstraint=eastwest;newEdgeStyle={&quot;edgeStyle&quot;:&quot;elbowEdgeStyle&quot;,&quot;elbow&quot;:&quot;vertical&quot;,&quot;curved&quot;:0,&quot;rounded&quot;:0};" vertex="1" parent="VzBomBVX7HgXpCq8d6OW-28">
          <mxGeometry x="45" y="1640" width="10" height="80.2" as="geometry" />
        </mxCell>
        <mxCell id="UfP4zuB7MxWbcNb7HJ3a-20" value="" style="html=1;points=[];perimeter=orthogonalPerimeter;outlineConnect=0;targetShapes=umlLifeline;portConstraint=eastwest;newEdgeStyle={&quot;edgeStyle&quot;:&quot;elbowEdgeStyle&quot;,&quot;elbow&quot;:&quot;vertical&quot;,&quot;curved&quot;:0,&quot;rounded&quot;:0};" vertex="1" parent="VzBomBVX7HgXpCq8d6OW-28">
          <mxGeometry x="371" y="1560.2" width="10" height="80.2" as="geometry" />
        </mxCell>
        <mxCell id="UfP4zuB7MxWbcNb7HJ3a-21" style="edgeStyle=elbowEdgeStyle;rounded=0;orthogonalLoop=1;jettySize=auto;html=1;elbow=vertical;curved=0;" edge="1" parent="VzBomBVX7HgXpCq8d6OW-28" target="UfP4zuB7MxWbcNb7HJ3a-18">
          <mxGeometry relative="1" as="geometry">
            <mxPoint x="-269" y="1480" as="sourcePoint" />
            <Array as="points">
              <mxPoint x="-84" y="1480" />
            </Array>
          </mxGeometry>
        </mxCell>
        <mxCell id="UfP4zuB7MxWbcNb7HJ3a-22" value="Modifie une tache" style="edgeLabel;html=1;align=center;verticalAlign=middle;resizable=0;points=[];" vertex="1" connectable="0" parent="UfP4zuB7MxWbcNb7HJ3a-21">
          <mxGeometry x="-0.245" y="-1" relative="1" as="geometry">
            <mxPoint x="38" y="-16" as="offset" />
          </mxGeometry>
        </mxCell>
        <mxCell id="UfP4zuB7MxWbcNb7HJ3a-23" style="edgeStyle=elbowEdgeStyle;rounded=0;orthogonalLoop=1;jettySize=auto;html=1;elbow=vertical;curved=0;" edge="1" parent="VzBomBVX7HgXpCq8d6OW-28" source="UfP4zuB7MxWbcNb7HJ3a-18" target="UfP4zuB7MxWbcNb7HJ3a-20">
          <mxGeometry relative="1" as="geometry">
            <Array as="points">
              <mxPoint x="236" y="1560" />
            </Array>
          </mxGeometry>
        </mxCell>
        <mxCell id="UfP4zuB7MxWbcNb7HJ3a-24" value="Requête la modification de la tache" style="edgeLabel;html=1;align=center;verticalAlign=middle;resizable=0;points=[];" vertex="1" connectable="0" parent="UfP4zuB7MxWbcNb7HJ3a-23">
          <mxGeometry x="-0.3621" y="-1" relative="1" as="geometry">
            <mxPoint x="65" y="-11" as="offset" />
          </mxGeometry>
        </mxCell>
        <mxCell id="UfP4zuB7MxWbcNb7HJ3a-25" style="edgeStyle=elbowEdgeStyle;rounded=0;orthogonalLoop=1;jettySize=auto;html=1;elbow=vertical;curved=0;dashed=1;" edge="1" parent="VzBomBVX7HgXpCq8d6OW-28" source="UfP4zuB7MxWbcNb7HJ3a-20" target="UfP4zuB7MxWbcNb7HJ3a-19">
          <mxGeometry relative="1" as="geometry" />
        </mxCell>
        <mxCell id="UfP4zuB7MxWbcNb7HJ3a-26" value="Confirme la modification de la tache" style="edgeLabel;html=1;align=center;verticalAlign=middle;resizable=0;points=[];" vertex="1" connectable="0" parent="UfP4zuB7MxWbcNb7HJ3a-25">
          <mxGeometry x="0.4664" y="1" relative="1" as="geometry">
            <mxPoint x="86" y="-11" as="offset" />
          </mxGeometry>
        </mxCell>
        <mxCell id="UfP4zuB7MxWbcNb7HJ3a-27" style="edgeStyle=elbowEdgeStyle;rounded=0;orthogonalLoop=1;jettySize=auto;html=1;elbow=vertical;curved=0;dashed=1;" edge="1" parent="VzBomBVX7HgXpCq8d6OW-28" source="UfP4zuB7MxWbcNb7HJ3a-19">
          <mxGeometry relative="1" as="geometry">
            <mxPoint x="-269" y="1720" as="targetPoint" />
            <Array as="points">
              <mxPoint x="-124" y="1720" />
            </Array>
          </mxGeometry>
        </mxCell>
        <mxCell id="UfP4zuB7MxWbcNb7HJ3a-28" value="Affiche un message de validation" style="edgeLabel;html=1;align=center;verticalAlign=middle;resizable=0;points=[];" vertex="1" connectable="0" parent="UfP4zuB7MxWbcNb7HJ3a-27">
          <mxGeometry x="-0.4228" y="1" relative="1" as="geometry">
            <mxPoint x="-84" y="-11" as="offset" />
          </mxGeometry>
        </mxCell>
        <mxCell id="UfP4zuB7MxWbcNb7HJ3a-29" value="" style="html=1;points=[];perimeter=orthogonalPerimeter;outlineConnect=0;targetShapes=umlLifeline;portConstraint=eastwest;newEdgeStyle={&quot;edgeStyle&quot;:&quot;elbowEdgeStyle&quot;,&quot;elbow&quot;:&quot;vertical&quot;,&quot;curved&quot;:0,&quot;rounded&quot;:0};" vertex="1" parent="VzBomBVX7HgXpCq8d6OW-28">
          <mxGeometry x="46" y="1180" width="10" height="80.2" as="geometry" />
        </mxCell>
        <mxCell id="UfP4zuB7MxWbcNb7HJ3a-30" style="edgeStyle=elbowEdgeStyle;rounded=0;orthogonalLoop=1;jettySize=auto;html=1;elbow=vertical;curved=0;" edge="1" parent="VzBomBVX7HgXpCq8d6OW-28">
          <mxGeometry relative="1" as="geometry">
            <Array as="points">
              <mxPoint x="-105" y="1180" />
            </Array>
            <mxPoint x="50.5" y="1180" as="targetPoint" />
            <mxPoint x="-273" y="1180" as="sourcePoint" />
          </mxGeometry>
        </mxCell>
        <mxCell id="UfP4zuB7MxWbcNb7HJ3a-31" value="Accède à la page listant les taches" style="edgeLabel;html=1;align=center;verticalAlign=middle;resizable=0;points=[];" vertex="1" connectable="0" parent="UfP4zuB7MxWbcNb7HJ3a-30">
          <mxGeometry x="0.2055" relative="1" as="geometry">
            <mxPoint x="-36" y="-10" as="offset" />
          </mxGeometry>
        </mxCell>
        <mxCell id="UfP4zuB7MxWbcNb7HJ3a-32" style="edgeStyle=elbowEdgeStyle;rounded=0;orthogonalLoop=1;jettySize=auto;html=1;elbow=vertical;curved=0;dashed=1;" edge="1" parent="VzBomBVX7HgXpCq8d6OW-28" source="UfP4zuB7MxWbcNb7HJ3a-29">
          <mxGeometry relative="1" as="geometry">
            <Array as="points">
              <mxPoint x="-202" y="1260" />
            </Array>
            <mxPoint x="-268" y="1260" as="targetPoint" />
          </mxGeometry>
        </mxCell>
        <mxCell id="UfP4zuB7MxWbcNb7HJ3a-33" value="Affiche la page listant les taches" style="edgeLabel;html=1;align=center;verticalAlign=middle;resizable=0;points=[];" vertex="1" connectable="0" parent="UfP4zuB7MxWbcNb7HJ3a-32">
          <mxGeometry x="0.1456" y="1" relative="1" as="geometry">
            <mxPoint x="20" y="-11" as="offset" />
          </mxGeometry>
        </mxCell>
        <mxCell id="drv3APGmW7GYEXX_s7Kb-1" value=":BDD" style="shape=umlLifeline;perimeter=lifelinePerimeter;whiteSpace=wrap;html=1;container=1;dropTarget=0;collapsible=0;recursiveResize=0;outlineConnect=0;portConstraint=eastwest;newEdgeStyle={&quot;edgeStyle&quot;:&quot;elbowEdgeStyle&quot;,&quot;elbow&quot;:&quot;vertical&quot;,&quot;curved&quot;:0,&quot;rounded&quot;:0};" parent="1" vertex="1">
          <mxGeometry x="689" y="200" width="100" height="2320" as="geometry" />
        </mxCell>
        <mxCell id="drv3APGmW7GYEXX_s7Kb-19" style="edgeStyle=elbowEdgeStyle;rounded=0;orthogonalLoop=1;jettySize=auto;html=1;elbow=vertical;curved=0;" parent="1" source="VzBomBVX7HgXpCq8d6OW-50" edge="1">
          <mxGeometry relative="1" as="geometry">
            <Array as="points">
              <mxPoint x="257" y="360" />
            </Array>
            <mxPoint x="412.5" y="360" as="targetPoint" />
          </mxGeometry>
        </mxCell>
        <mxCell id="drv3APGmW7GYEXX_s7Kb-20" value="Accède à la page listant les taches" style="edgeLabel;html=1;align=center;verticalAlign=middle;resizable=0;points=[];" parent="drv3APGmW7GYEXX_s7Kb-19" vertex="1" connectable="0">
          <mxGeometry x="0.2055" relative="1" as="geometry">
            <mxPoint x="-36" y="-10" as="offset" />
          </mxGeometry>
        </mxCell>
        <mxCell id="Kt3bTRJJ_USKNN57myqg-1" style="edgeStyle=elbowEdgeStyle;rounded=0;orthogonalLoop=1;jettySize=auto;html=1;elbow=vertical;curved=0;dashed=1;" parent="1" source="VzBomBVX7HgXpCq8d6OW-47" target="VzBomBVX7HgXpCq8d6OW-50" edge="1">
          <mxGeometry relative="1" as="geometry">
            <Array as="points">
              <mxPoint x="160" y="440" />
            </Array>
          </mxGeometry>
        </mxCell>
        <mxCell id="Kt3bTRJJ_USKNN57myqg-2" value="Affiche la page listant les taches" style="edgeLabel;html=1;align=center;verticalAlign=middle;resizable=0;points=[];" parent="Kt3bTRJJ_USKNN57myqg-1" vertex="1" connectable="0">
          <mxGeometry x="0.1456" y="1" relative="1" as="geometry">
            <mxPoint x="20" y="-11" as="offset" />
          </mxGeometry>
        </mxCell>
        <mxCell id="Kt3bTRJJ_USKNN57myqg-13" value="frame" style="shape=umlFrame;whiteSpace=wrap;html=1;pointerEvents=0;" parent="1" vertex="1">
          <mxGeometry x="-320" y="310" width="1200" height="180" as="geometry" />
        </mxCell>
        <mxCell id="Kt3bTRJJ_USKNN57myqg-14" value="&lt;div&gt;&lt;font style=&quot;font-size: 24px;&quot;&gt;Consulter mes taches&lt;br&gt;&lt;/font&gt;&lt;/div&gt;" style="text;html=1;align=center;verticalAlign=middle;resizable=0;points=[];autosize=1;strokeColor=none;fillColor=none;" parent="1" vertex="1">
          <mxGeometry x="-300" y="380" width="260" height="40" as="geometry" />
        </mxCell>
        <mxCell id="q1P370LqQ6XQnhw_d_2Z-36" value="frame" style="shape=umlFrame;whiteSpace=wrap;html=1;pointerEvents=0;" parent="1" vertex="1">
          <mxGeometry x="-320" y="590" width="1200" height="640" as="geometry" />
        </mxCell>
        <mxCell id="q1P370LqQ6XQnhw_d_2Z-37" value="Ajouter une tache" style="text;html=1;align=center;verticalAlign=middle;resizable=0;points=[];autosize=1;strokeColor=none;fillColor=none;fontSize=24;" parent="1" vertex="1">
          <mxGeometry x="-300" y="640" width="210" height="40" as="geometry" />
        </mxCell>
        <mxCell id="VzBomBVX7HgXpCq8d6OW-27" value=":Utilisateur" style="shape=umlLifeline;perimeter=lifelinePerimeter;whiteSpace=wrap;html=1;container=1;dropTarget=0;collapsible=0;recursiveResize=0;outlineConnect=0;portConstraint=eastwest;newEdgeStyle={&quot;edgeStyle&quot;:&quot;elbowEdgeStyle&quot;,&quot;elbow&quot;:&quot;vertical&quot;,&quot;curved&quot;:0,&quot;rounded&quot;:0};" parent="1" vertex="1">
          <mxGeometry x="39" y="200" width="100" height="2320" as="geometry" />
        </mxCell>
        <mxCell id="VzBomBVX7HgXpCq8d6OW-50" value="" style="html=1;points=[];perimeter=orthogonalPerimeter;outlineConnect=0;targetShapes=umlLifeline;portConstraint=eastwest;newEdgeStyle={&quot;edgeStyle&quot;:&quot;elbowEdgeStyle&quot;,&quot;elbow&quot;:&quot;vertical&quot;,&quot;curved&quot;:0,&quot;rounded&quot;:0};" parent="VzBomBVX7HgXpCq8d6OW-27" vertex="1">
          <mxGeometry x="45" y="160.2" width="10" height="2129.8" as="geometry" />
        </mxCell>
        <mxCell id="q1P370LqQ6XQnhw_d_2Z-1" value="" style="html=1;points=[];perimeter=orthogonalPerimeter;outlineConnect=0;targetShapes=umlLifeline;portConstraint=eastwest;newEdgeStyle={&quot;edgeStyle&quot;:&quot;elbowEdgeStyle&quot;,&quot;elbow&quot;:&quot;vertical&quot;,&quot;curved&quot;:0,&quot;rounded&quot;:0};" parent="1" vertex="1">
          <mxGeometry x="408" y="940" width="10" height="80.2" as="geometry" />
        </mxCell>
        <mxCell id="q1P370LqQ6XQnhw_d_2Z-2" value="" style="html=1;points=[];perimeter=orthogonalPerimeter;outlineConnect=0;targetShapes=umlLifeline;portConstraint=eastwest;newEdgeStyle={&quot;edgeStyle&quot;:&quot;elbowEdgeStyle&quot;,&quot;elbow&quot;:&quot;vertical&quot;,&quot;curved&quot;:0,&quot;rounded&quot;:0};" parent="1" vertex="1">
          <mxGeometry x="408" y="1100" width="10" height="80.2" as="geometry" />
        </mxCell>
        <mxCell id="q1P370LqQ6XQnhw_d_2Z-7" value="" style="html=1;points=[];perimeter=orthogonalPerimeter;outlineConnect=0;targetShapes=umlLifeline;portConstraint=eastwest;newEdgeStyle={&quot;edgeStyle&quot;:&quot;elbowEdgeStyle&quot;,&quot;elbow&quot;:&quot;vertical&quot;,&quot;curved&quot;:0,&quot;rounded&quot;:0};" parent="1" vertex="1">
          <mxGeometry x="734" y="1020.2" width="10" height="80.2" as="geometry" />
        </mxCell>
        <mxCell id="q1P370LqQ6XQnhw_d_2Z-10" style="edgeStyle=elbowEdgeStyle;rounded=0;orthogonalLoop=1;jettySize=auto;html=1;elbow=vertical;curved=0;" parent="1" target="q1P370LqQ6XQnhw_d_2Z-1" edge="1">
          <mxGeometry relative="1" as="geometry">
            <mxPoint x="94" y="940" as="sourcePoint" />
            <Array as="points">
              <mxPoint x="279" y="940" />
            </Array>
          </mxGeometry>
        </mxCell>
        <mxCell id="q1P370LqQ6XQnhw_d_2Z-11" value="Ajoute une nouvelle tache" style="edgeLabel;html=1;align=center;verticalAlign=middle;resizable=0;points=[];" parent="q1P370LqQ6XQnhw_d_2Z-10" vertex="1" connectable="0">
          <mxGeometry x="-0.245" y="-1" relative="1" as="geometry">
            <mxPoint x="38" y="-16" as="offset" />
          </mxGeometry>
        </mxCell>
        <mxCell id="q1P370LqQ6XQnhw_d_2Z-12" style="edgeStyle=elbowEdgeStyle;rounded=0;orthogonalLoop=1;jettySize=auto;html=1;elbow=vertical;curved=0;" parent="1" source="q1P370LqQ6XQnhw_d_2Z-1" target="q1P370LqQ6XQnhw_d_2Z-7" edge="1">
          <mxGeometry relative="1" as="geometry">
            <Array as="points">
              <mxPoint x="599" y="1020" />
            </Array>
          </mxGeometry>
        </mxCell>
        <mxCell id="q1P370LqQ6XQnhw_d_2Z-13" value="Requête l&#39;enregistrement de la tache" style="edgeLabel;html=1;align=center;verticalAlign=middle;resizable=0;points=[];" parent="q1P370LqQ6XQnhw_d_2Z-12" vertex="1" connectable="0">
          <mxGeometry x="-0.3621" y="-1" relative="1" as="geometry">
            <mxPoint x="65" y="-11" as="offset" />
          </mxGeometry>
        </mxCell>
        <mxCell id="q1P370LqQ6XQnhw_d_2Z-14" style="edgeStyle=elbowEdgeStyle;rounded=0;orthogonalLoop=1;jettySize=auto;html=1;elbow=vertical;curved=0;dashed=1;" parent="1" source="q1P370LqQ6XQnhw_d_2Z-7" target="q1P370LqQ6XQnhw_d_2Z-2" edge="1">
          <mxGeometry relative="1" as="geometry" />
        </mxCell>
        <mxCell id="q1P370LqQ6XQnhw_d_2Z-15" value="Confirme l&#39;enregistrement de la tache" style="edgeLabel;html=1;align=center;verticalAlign=middle;resizable=0;points=[];" parent="q1P370LqQ6XQnhw_d_2Z-14" vertex="1" connectable="0">
          <mxGeometry x="0.4664" y="1" relative="1" as="geometry">
            <mxPoint x="86" y="-11" as="offset" />
          </mxGeometry>
        </mxCell>
        <mxCell id="q1P370LqQ6XQnhw_d_2Z-16" style="edgeStyle=elbowEdgeStyle;rounded=0;orthogonalLoop=1;jettySize=auto;html=1;elbow=vertical;curved=0;dashed=1;" parent="1" source="q1P370LqQ6XQnhw_d_2Z-2" edge="1">
          <mxGeometry relative="1" as="geometry">
            <mxPoint x="94" y="1180" as="targetPoint" />
            <Array as="points">
              <mxPoint x="239" y="1180" />
            </Array>
          </mxGeometry>
        </mxCell>
        <mxCell id="q1P370LqQ6XQnhw_d_2Z-17" value="Affiche un message de validation" style="edgeLabel;html=1;align=center;verticalAlign=middle;resizable=0;points=[];" parent="q1P370LqQ6XQnhw_d_2Z-16" vertex="1" connectable="0">
          <mxGeometry x="-0.4228" y="1" relative="1" as="geometry">
            <mxPoint x="-84" y="-11" as="offset" />
          </mxGeometry>
        </mxCell>
        <mxCell id="UfP4zuB7MxWbcNb7HJ3a-1" value="" style="html=1;points=[];perimeter=orthogonalPerimeter;outlineConnect=0;targetShapes=umlLifeline;portConstraint=eastwest;newEdgeStyle={&quot;edgeStyle&quot;:&quot;elbowEdgeStyle&quot;,&quot;elbow&quot;:&quot;vertical&quot;,&quot;curved&quot;:0,&quot;rounded&quot;:0};" vertex="1" parent="1">
          <mxGeometry x="409" y="640" width="10" height="80.2" as="geometry" />
        </mxCell>
        <mxCell id="UfP4zuB7MxWbcNb7HJ3a-2" style="edgeStyle=elbowEdgeStyle;rounded=0;orthogonalLoop=1;jettySize=auto;html=1;elbow=vertical;curved=0;" edge="1" parent="1">
          <mxGeometry relative="1" as="geometry">
            <Array as="points">
              <mxPoint x="258" y="640" />
            </Array>
            <mxPoint x="413.5" y="640" as="targetPoint" />
            <mxPoint x="90" y="640" as="sourcePoint" />
          </mxGeometry>
        </mxCell>
        <mxCell id="UfP4zuB7MxWbcNb7HJ3a-3" value="Accède à la page listant les taches" style="edgeLabel;html=1;align=center;verticalAlign=middle;resizable=0;points=[];" vertex="1" connectable="0" parent="UfP4zuB7MxWbcNb7HJ3a-2">
          <mxGeometry x="0.2055" relative="1" as="geometry">
            <mxPoint x="-36" y="-10" as="offset" />
          </mxGeometry>
        </mxCell>
        <mxCell id="UfP4zuB7MxWbcNb7HJ3a-4" style="edgeStyle=elbowEdgeStyle;rounded=0;orthogonalLoop=1;jettySize=auto;html=1;elbow=vertical;curved=0;dashed=1;" edge="1" parent="1" source="UfP4zuB7MxWbcNb7HJ3a-1">
          <mxGeometry relative="1" as="geometry">
            <Array as="points">
              <mxPoint x="161" y="720" />
            </Array>
            <mxPoint x="95" y="720" as="targetPoint" />
          </mxGeometry>
        </mxCell>
        <mxCell id="UfP4zuB7MxWbcNb7HJ3a-5" value="Affiche la page listant les taches" style="edgeLabel;html=1;align=center;verticalAlign=middle;resizable=0;points=[];" vertex="1" connectable="0" parent="UfP4zuB7MxWbcNb7HJ3a-4">
          <mxGeometry x="0.1456" y="1" relative="1" as="geometry">
            <mxPoint x="20" y="-11" as="offset" />
          </mxGeometry>
        </mxCell>
        <mxCell id="UfP4zuB7MxWbcNb7HJ3a-39" value="frame" style="shape=umlFrame;whiteSpace=wrap;html=1;pointerEvents=0;" vertex="1" parent="1">
          <mxGeometry x="-320" y="2070" width="1200" height="470" as="geometry" />
        </mxCell>
        <mxCell id="UfP4zuB7MxWbcNb7HJ3a-40" value="Supprimer une tache" style="text;html=1;align=center;verticalAlign=middle;resizable=0;points=[];autosize=1;strokeColor=none;fillColor=none;fontSize=24;" vertex="1" parent="1">
          <mxGeometry x="-320" y="2120" width="250" height="40" as="geometry" />
        </mxCell>
        <mxCell id="UfP4zuB7MxWbcNb7HJ3a-41" value="" style="html=1;points=[];perimeter=orthogonalPerimeter;outlineConnect=0;targetShapes=umlLifeline;portConstraint=eastwest;newEdgeStyle={&quot;edgeStyle&quot;:&quot;elbowEdgeStyle&quot;,&quot;elbow&quot;:&quot;vertical&quot;,&quot;curved&quot;:0,&quot;rounded&quot;:0};" vertex="1" parent="1">
          <mxGeometry x="408" y="2250" width="10" height="80.2" as="geometry" />
        </mxCell>
        <mxCell id="UfP4zuB7MxWbcNb7HJ3a-42" value="" style="html=1;points=[];perimeter=orthogonalPerimeter;outlineConnect=0;targetShapes=umlLifeline;portConstraint=eastwest;newEdgeStyle={&quot;edgeStyle&quot;:&quot;elbowEdgeStyle&quot;,&quot;elbow&quot;:&quot;vertical&quot;,&quot;curved&quot;:0,&quot;rounded&quot;:0};" vertex="1" parent="1">
          <mxGeometry x="408" y="2410" width="10" height="80.2" as="geometry" />
        </mxCell>
        <mxCell id="UfP4zuB7MxWbcNb7HJ3a-43" value="" style="html=1;points=[];perimeter=orthogonalPerimeter;outlineConnect=0;targetShapes=umlLifeline;portConstraint=eastwest;newEdgeStyle={&quot;edgeStyle&quot;:&quot;elbowEdgeStyle&quot;,&quot;elbow&quot;:&quot;vertical&quot;,&quot;curved&quot;:0,&quot;rounded&quot;:0};" vertex="1" parent="1">
          <mxGeometry x="734" y="2330.2" width="10" height="80.2" as="geometry" />
        </mxCell>
        <mxCell id="UfP4zuB7MxWbcNb7HJ3a-44" style="edgeStyle=elbowEdgeStyle;rounded=0;orthogonalLoop=1;jettySize=auto;html=1;elbow=vertical;curved=0;" edge="1" parent="1" target="UfP4zuB7MxWbcNb7HJ3a-41">
          <mxGeometry relative="1" as="geometry">
            <mxPoint x="94" y="2250" as="sourcePoint" />
            <Array as="points">
              <mxPoint x="279" y="2250" />
            </Array>
          </mxGeometry>
        </mxCell>
        <mxCell id="UfP4zuB7MxWbcNb7HJ3a-45" value="Supprime une tache" style="edgeLabel;html=1;align=center;verticalAlign=middle;resizable=0;points=[];" vertex="1" connectable="0" parent="UfP4zuB7MxWbcNb7HJ3a-44">
          <mxGeometry x="-0.245" y="-1" relative="1" as="geometry">
            <mxPoint x="38" y="-16" as="offset" />
          </mxGeometry>
        </mxCell>
        <mxCell id="UfP4zuB7MxWbcNb7HJ3a-46" style="edgeStyle=elbowEdgeStyle;rounded=0;orthogonalLoop=1;jettySize=auto;html=1;elbow=vertical;curved=0;" edge="1" parent="1" source="UfP4zuB7MxWbcNb7HJ3a-41" target="UfP4zuB7MxWbcNb7HJ3a-43">
          <mxGeometry relative="1" as="geometry">
            <Array as="points">
              <mxPoint x="599" y="2330" />
            </Array>
          </mxGeometry>
        </mxCell>
        <mxCell id="UfP4zuB7MxWbcNb7HJ3a-47" value="Requête la suppression de la tache" style="edgeLabel;html=1;align=center;verticalAlign=middle;resizable=0;points=[];" vertex="1" connectable="0" parent="UfP4zuB7MxWbcNb7HJ3a-46">
          <mxGeometry x="-0.3621" y="-1" relative="1" as="geometry">
            <mxPoint x="65" y="-11" as="offset" />
          </mxGeometry>
        </mxCell>
        <mxCell id="UfP4zuB7MxWbcNb7HJ3a-48" style="edgeStyle=elbowEdgeStyle;rounded=0;orthogonalLoop=1;jettySize=auto;html=1;elbow=vertical;curved=0;dashed=1;" edge="1" parent="1" source="UfP4zuB7MxWbcNb7HJ3a-43" target="UfP4zuB7MxWbcNb7HJ3a-42">
          <mxGeometry relative="1" as="geometry" />
        </mxCell>
        <mxCell id="UfP4zuB7MxWbcNb7HJ3a-49" value="Confirme la suppression de la tache" style="edgeLabel;html=1;align=center;verticalAlign=middle;resizable=0;points=[];" vertex="1" connectable="0" parent="UfP4zuB7MxWbcNb7HJ3a-48">
          <mxGeometry x="0.4664" y="1" relative="1" as="geometry">
            <mxPoint x="86" y="-11" as="offset" />
          </mxGeometry>
        </mxCell>
        <mxCell id="UfP4zuB7MxWbcNb7HJ3a-50" style="edgeStyle=elbowEdgeStyle;rounded=0;orthogonalLoop=1;jettySize=auto;html=1;elbow=vertical;curved=0;dashed=1;" edge="1" parent="1" source="UfP4zuB7MxWbcNb7HJ3a-42">
          <mxGeometry relative="1" as="geometry">
            <mxPoint x="94" y="2490" as="targetPoint" />
            <Array as="points">
              <mxPoint x="239" y="2490" />
            </Array>
          </mxGeometry>
        </mxCell>
        <mxCell id="UfP4zuB7MxWbcNb7HJ3a-51" value="Affiche un message de validation" style="edgeLabel;html=1;align=center;verticalAlign=middle;resizable=0;points=[];" vertex="1" connectable="0" parent="UfP4zuB7MxWbcNb7HJ3a-50">
          <mxGeometry x="-0.4228" y="1" relative="1" as="geometry">
            <mxPoint x="-84" y="-11" as="offset" />
          </mxGeometry>
        </mxCell>
        <mxCell id="UfP4zuB7MxWbcNb7HJ3a-52" value="" style="html=1;points=[];perimeter=orthogonalPerimeter;outlineConnect=0;targetShapes=umlLifeline;portConstraint=eastwest;newEdgeStyle={&quot;edgeStyle&quot;:&quot;elbowEdgeStyle&quot;,&quot;elbow&quot;:&quot;vertical&quot;,&quot;curved&quot;:0,&quot;rounded&quot;:0};" vertex="1" parent="1">
          <mxGeometry x="409" y="2120" width="10" height="80.2" as="geometry" />
        </mxCell>
        <mxCell id="UfP4zuB7MxWbcNb7HJ3a-53" style="edgeStyle=elbowEdgeStyle;rounded=0;orthogonalLoop=1;jettySize=auto;html=1;elbow=vertical;curved=0;" edge="1" parent="1">
          <mxGeometry relative="1" as="geometry">
            <Array as="points">
              <mxPoint x="258" y="2120" />
            </Array>
            <mxPoint x="413.5" y="2120" as="targetPoint" />
            <mxPoint x="90" y="2120" as="sourcePoint" />
          </mxGeometry>
        </mxCell>
        <mxCell id="UfP4zuB7MxWbcNb7HJ3a-54" value="Accède à la page listant les taches" style="edgeLabel;html=1;align=center;verticalAlign=middle;resizable=0;points=[];" vertex="1" connectable="0" parent="UfP4zuB7MxWbcNb7HJ3a-53">
          <mxGeometry x="0.2055" relative="1" as="geometry">
            <mxPoint x="-36" y="-10" as="offset" />
          </mxGeometry>
        </mxCell>
        <mxCell id="UfP4zuB7MxWbcNb7HJ3a-55" style="edgeStyle=elbowEdgeStyle;rounded=0;orthogonalLoop=1;jettySize=auto;html=1;elbow=vertical;curved=0;dashed=1;" edge="1" parent="1" source="UfP4zuB7MxWbcNb7HJ3a-52">
          <mxGeometry relative="1" as="geometry">
            <Array as="points">
              <mxPoint x="161" y="2200" />
            </Array>
            <mxPoint x="95" y="2200" as="targetPoint" />
          </mxGeometry>
        </mxCell>
        <mxCell id="UfP4zuB7MxWbcNb7HJ3a-56" value="Affiche la page listant les taches" style="edgeLabel;html=1;align=center;verticalAlign=middle;resizable=0;points=[];" vertex="1" connectable="0" parent="UfP4zuB7MxWbcNb7HJ3a-55">
          <mxGeometry x="0.1456" y="1" relative="1" as="geometry">
            <mxPoint x="20" y="-11" as="offset" />
          </mxGeometry>
        </mxCell>
      </root>
    </mxGraphModel>
  </diagram>
</mxfile>
